<?xml version="1.0" standalone="no"?>
<!DOCTYPE svg PUBLIC "-//W3C//DTD SVG 20010904//EN"
 "http://www.w3.org/TR/2001/REC-SVG-20010904/DTD/svg10.dtd">
<svg version="1.0" xmlns="http://www.w3.org/2000/svg"
 width="559.000000pt" height="211.000000pt" viewBox="0 0 559.000000 211.000000"
 preserveAspectRatio="xMidYMid meet">

<g transform="translate(0.000000,211.000000) scale(0.100000,-0.100000)"
fill="#000000" stroke="none">
<path d="M2752 1776 c-18 -30 -27 -35 -88 -45 -95 -17 -200 -60 -278 -114 -61
-43 -67 -45 -101 -36 -20 6 -39 8 -43 5 -3 -3 -1 -22 5 -41 11 -33 8 -39 -43
-115 -29 -44 -59 -98 -65 -120 -7 -23 -18 -40 -27 -40 -12 0 -13 10 -7 55 3
30 3 55 -1 55 -28 0 -377 -107 -381 -116 -2 -7 10 -106 29 -221 l33 -208 171
-3 171 -2 12 -40 c6 -22 36 -76 65 -120 51 -76 54 -82 43 -115 -6 -19 -8 -38
-5 -41 4 -3 23 -1 43 5 34 9 40 7 101 -36 78 -54 183 -97 278 -114 61 -10 70
-15 88 -45 11 -19 23 -34 27 -34 3 0 14 15 24 33 16 30 24 34 104 50 100 21
190 59 271 116 54 38 60 40 96 30 21 -6 39 -9 41 -7 2 2 -1 22 -6 45 -10 38
-9 43 25 88 20 26 51 78 69 116 17 38 36 69 41 69 5 0 6 -24 2 -55 -3 -30 -3
-55 1 -55 14 -1 378 103 385 109 3 3 -9 100 -28 216 -18 116 -34 213 -34 218
0 4 -75 7 -168 7 l-167 0 -32 69 c-18 38 -49 90 -69 116 -34 45 -35 50 -25 88
5 23 8 43 6 45 -2 2 -20 -1 -41 -7 -36 -10 -42 -8 -96 30 -81 57 -171 95 -271
116 -80 16 -88 20 -104 50 -10 18 -21 33 -24 33 -4 0 -16 -15 -27 -34z m194
-102 c157 -40 320 -169 397 -313 34 -63 42 -91 25 -91 -7 0 -26 26 -43 57 -16
31 -36 59 -43 61 -8 2 0 -19 17 -50 35 -61 36 -68 19 -68 -7 0 -26 24 -42 53
-16 28 -31 47 -33 41 -2 -7 5 -27 16 -45 26 -42 26 -49 3 -49 -10 0 -26 15
-36 35 -11 19 -23 35 -28 35 -12 0 -10 -14 7 -36 19 -25 19 -34 -2 -34 -10 0
-29 19 -43 41 -56 93 -170 168 -290 192 -48 10 -66 19 -73 35 -13 28 -21 28
-40 -2 -12 -17 -29 -25 -64 -30 -102 -13 -246 -109 -304 -203 -12 -19 -29 -33
-41 -33 -19 0 -19 1 2 35 12 19 17 35 10 35 -6 0 -20 -16 -31 -35 -13 -21 -29
-35 -41 -35 -19 0 -19 2 6 44 28 48 31 56 18 56 -5 0 -21 -22 -36 -50 -26 -48
-46 -64 -46 -37 0 6 11 32 25 56 28 48 29 51 16 51 -4 0 -23 -27 -40 -60 -18
-33 -39 -60 -47 -60 -12 0 -12 5 1 38 67 158 226 303 394 357 113 37 249 40
367 9z m-886 -366 c-1 -33 -17 -39 -96 -36 l-79 3 75 22 c90 26 100 27 100 11z
m1670 -80 c1 -2 14 -79 29 -173 16 -93 27 -173 24 -177 -6 -10 -1950 -10
-1957 0 -5 8 -56 314 -56 337 0 13 125 15 980 15 539 0 980 -1 980 -2z m-1520
-410 c0 -19 61 -121 67 -114 4 3 -6 28 -20 55 -15 27 -27 54 -27 60 0 25 20 8
46 -39 15 -27 31 -50 36 -50 13 0 10 8 -18 56 -25 42 -25 44 -6 44 12 0 28
-14 41 -35 11 -19 25 -35 31 -35 7 0 2 16 -10 35 -21 34 -21 35 -2 35 12 0 29
-14 41 -33 58 -94 202 -190 304 -203 35 -5 52 -13 64 -30 19 -30 27 -30 40 -2
7 16 25 25 73 35 35 7 89 25 119 39 58 29 174 137 186 173 3 12 15 21 26 21
23 0 24 -8 4 -34 -17 -22 -19 -36 -7 -36 5 0 17 16 28 35 10 20 26 35 36 35
23 0 23 -5 -7 -57 -14 -23 -21 -43 -15 -43 5 0 22 22 38 50 15 27 33 50 40 50
17 0 16 -7 -18 -67 -33 -57 -34 -63 -21 -63 5 0 24 29 42 65 19 36 40 65 47
65 17 0 9 -28 -25 -91 -78 -147 -237 -270 -404 -315 -101 -27 -254 -23 -355
10 -177 57 -342 208 -403 369 -9 24 -8 27 9 27 11 0 20 -6 20 -12z m1380 -14
c-89 -28 -104 -30 -96 -8 3 9 6 20 6 25 0 5 37 9 83 8 l82 -1 -75 -24z"/>
<path d="M2195 1075 c0 -81 1 -85 23 -85 12 0 22 5 22 10 0 6 -4 10 -10 10 -6
0 -10 32 -10 75 0 53 -4 75 -12 75 -10 0 -13 -24 -13 -85z"/>
<path d="M2275 1149 c-10 -15 3 -25 16 -12 7 7 7 13 1 17 -6 3 -14 1 -17 -5z"/>
<path d="M2795 1075 c0 -81 1 -85 23 -85 24 0 28 10 11 27 -15 15 -7 54 14 67
14 8 20 8 27 -4 13 -20 13 -70 0 -70 -5 0 -10 -4 -10 -10 0 -5 12 -10 26 -10
20 0 25 4 20 16 -3 9 -6 28 -6 44 0 38 -25 62 -56 54 -22 -6 -24 -3 -24 25 0
18 -5 31 -12 31 -10 0 -13 -24 -13 -85z"/>
<path d="M3346 1152 c-3 -6 -1 -14 5 -17 15 -10 25 3 12 16 -7 7 -13 7 -17 1z"/>
<path d="M1932 1094 c-43 -30 -18 -104 36 -104 23 0 52 34 52 62 0 21 -34 58
-53 58 -7 0 -23 -7 -35 -16z m62 -26 c14 -23 -3 -52 -32 -56 -16 -2 -23 3 -28
22 -12 48 35 74 60 34z"/>
<path d="M2070 1101 c-23 -4 -31 -9 -22 -14 14 -10 16 -63 2 -72 -18 -11 -11
-25 13 -25 21 0 23 4 23 48 -1 41 2 47 19 47 15 0 21 -8 23 -34 2 -20 -2 -37
-9 -42 -19 -11 15 -24 39 -14 11 5 13 9 5 12 -8 3 -13 22 -13 43 0 29 -5 42
-19 50 -11 5 -21 9 -23 9 -2 -1 -19 -4 -38 -8z"/>
<path d="M2365 1101 c-29 -6 -30 -8 -30 -58 -1 -47 1 -53 20 -53 19 0 21 6 21
48 -1 41 2 47 19 47 16 0 21 -8 23 -37 2 -23 -1 -38 -8 -38 -6 0 -8 -4 -5 -10
3 -5 14 -10 24 -10 16 0 18 6 14 48 -5 41 -25 75 -42 71 -3 -1 -19 -4 -36 -8z"/>
<path d="M2495 1094 c-20 -21 -16 -83 6 -97 17 -10 69 -2 69 11 0 4 -15 7 -32
7 -23 0 -34 5 -36 18 -3 14 4 17 37 17 34 0 39 3 34 18 -7 20 -32 42 -49 42
-7 0 -20 -7 -29 -16z m53 -21 c2 -8 -6 -13 -22 -13 -25 0 -33 10 -19 24 10 10
36 3 41 -11z"/>
<path d="M2696 1095 c-20 -21 -11 -41 26 -54 38 -14 27 -35 -14 -27 -26 5 -29
4 -18 -9 17 -21 57 -19 69 3 12 23 3 38 -33 52 -23 8 -27 13 -17 23 9 9 16 9
31 -1 11 -7 21 -8 25 -2 6 9 -25 30 -44 30 -5 0 -16 -7 -25 -15z"/>
<path d="M2950 1090 c-24 -24 -25 -48 -4 -78 30 -43 94 -18 94 37 0 30 -27 61
-53 61 -9 0 -26 -9 -37 -20z m65 -40 c0 -28 -4 -36 -22 -38 -29 -4 -48 30 -33
59 7 13 19 19 33 17 18 -2 22 -10 22 -38z"/>
<path d="M3085 1101 c-20 -4 -26 -9 -17 -14 15 -10 17 -113 2 -122 -18 -11
-10 -25 15 -25 22 0 25 3 19 25 -5 21 -3 25 15 25 27 0 61 34 61 60 0 23 -34
61 -52 59 -7 -1 -26 -4 -43 -8z m67 -36 c13 -29 -3 -55 -33 -55 -15 0 -19 7
-19 33 0 53 32 67 52 22z"/>
<path d="M3220 1100 c-19 -4 -29 -8 -22 -9 15 -1 17 -131 1 -131 -5 0 -7 -4
-4 -10 3 -5 17 -10 31 -10 13 0 24 5 24 10 0 6 -4 10 -10 10 -5 0 -10 7 -10
15 0 9 9 15 23 15 50 0 76 70 39 103 -10 10 -23 16 -28 16 -5 -1 -25 -5 -44
-9z m60 -25 c20 -24 4 -65 -25 -65 -22 0 -25 5 -25 33 0 48 24 64 50 32z"/>
<path d="M3430 1101 c-23 -4 -31 -9 -22 -14 15 -10 16 -77 1 -77 -5 0 -7 -4
-4 -10 3 -5 14 -10 24 -10 14 0 17 9 17 48 -1 41 2 47 19 47 17 0 20 -6 19
-47 0 -39 3 -48 17 -48 10 0 21 5 24 10 3 6 1 10 -4 10 -6 0 -11 17 -11 38 0
38 -14 63 -34 61 -6 -1 -27 -4 -46 -8z"/>
<path d="M3572 1094 c-44 -30 -13 -114 38 -101 12 3 20 0 20 -8 0 -17 -22 -25
-49 -18 -12 3 -21 1 -21 -5 0 -17 44 -22 67 -6 20 12 23 23 23 78 0 58 -2 64
-22 70 -31 8 -31 8 -56 -10z m56 -47 c3 -34 1 -37 -22 -37 -30 0 -46 41 -26
66 22 26 45 12 48 -29z"/>
<path d="M2265 1045 c0 -50 2 -55 23 -55 23 0 30 14 12 25 -5 3 -10 24 -10 46
0 24 -5 39 -12 39 -9 0 -13 -18 -13 -55z"/>
<path d="M3338 1088 c14 -14 16 -78 2 -78 -5 0 -10 -4 -10 -10 0 -5 12 -10 26
-10 20 0 25 4 20 16 -3 9 -6 33 -6 55 0 34 -3 39 -22 39 -17 0 -19 -3 -10 -12z"/>
<path d="M2613 1053 c9 -2 25 -2 35 0 9 3 1 5 -18 5 -19 0 -27 -2 -17 -5z"/>
</g>
</svg>
